<?xml version="1.0" encoding="utf-8"?>
<!-- Generator: Adobe Illustrator 18.0.0, SVG Export Plug-In . SVG Version: 6.00 Build 0)  -->
<!DOCTYPE svg PUBLIC "-//W3C//DTD SVG 1.1//EN" "http://www.w3.org/Graphics/SVG/1.1/DTD/svg11.dtd">
<svg version="1.1" id="图层_1" xmlns="http://www.w3.org/2000/svg" xmlns:xlink="http://www.w3.org/1999/xlink" x="0px" y="0px"
	 viewBox="0 0 135.2 33" enable-background="new 0 0 135.2 33" xml:space="preserve">
<g>
	<circle fill="#2990D0" cx="8.7" cy="21.6" r="8.7"/>
	<circle fill="#2990D0" cx="33.1" cy="21.6" r="8.7"/>
	<circle fill="#2990D0" cx="11.9" cy="11.3" r="6.7"/>
	<circle fill="#2990D0" cx="24.7" cy="12.6" r="11.9"/>
	<rect x="9" y="12.9" fill="#2990D0" width="24.4" height="17.4"/>
</g>
<g>
	<g>
		<circle fill="#FFFFFF" cx="21.3" cy="17.1" r="4.8"/>
	</g>
	<g>
		<path fill="#FFFFFF" d="M21.3,28.4c-6.4,0-11.6-5.2-11.6-11.6c0-2.8,1-5.5,2.8-7.5c0.7-0.8,1.9-0.9,2.7-0.2s0.9,1.9,0.2,2.7
			c-1.2,1.4-1.9,3.2-1.9,5c0,4.3,3.5,7.7,7.7,7.7s7.7-3.5,7.7-7.7c0-1.9-0.7-3.6-1.9-5c-0.7-0.8-0.6-2,0.2-2.7
			c0.8-0.7,2-0.6,2.7,0.2c1.8,2.1,2.8,4.8,2.8,7.5C32.9,23.2,27.7,28.4,21.3,28.4z"/>
	</g>
	<g>
		<rect x="14.6" y="25" fill="#FFFFFF" width="13.5" height="5.2"/>
	</g>
</g>
<g>
	<g>
		<path fill="#FFFFFF" d="M47.9,29.9c0.1,0.1,0.1,0.2,0.2,0.2c0.1,0.1,0.2,0.1,0.3,0.1c0.1,0,0.2,0,0.4,0c0.1,0,0.2,0,0.3,0
			c0.1,0,0.2,0,0.3-0.1c0.1,0,0.2-0.1,0.2-0.2c0.1-0.1,0.1-0.2,0.1-0.3c0-0.2-0.1-0.3-0.2-0.3c-0.1-0.1-0.3-0.1-0.5-0.2
			c-0.2,0-0.4-0.1-0.6-0.1c-0.2,0-0.4-0.1-0.6-0.2c-0.2-0.1-0.3-0.2-0.5-0.3c-0.1-0.1-0.2-0.3-0.2-0.6c0-0.2,0-0.3,0.1-0.5
			c0.1-0.1,0.2-0.2,0.3-0.3c0.1-0.1,0.3-0.1,0.5-0.2c0.2,0,0.3-0.1,0.5-0.1c0.2,0,0.4,0,0.6,0.1c0.2,0,0.3,0.1,0.5,0.2
			c0.1,0.1,0.2,0.2,0.3,0.3c0.1,0.1,0.1,0.3,0.1,0.6h-0.6c0-0.1,0-0.2-0.1-0.3c-0.1-0.1-0.1-0.1-0.2-0.2c-0.1,0-0.2-0.1-0.3-0.1
			c-0.1,0-0.2,0-0.3,0c-0.1,0-0.2,0-0.3,0c-0.1,0-0.2,0-0.2,0.1s-0.1,0.1-0.2,0.1c0,0.1-0.1,0.1-0.1,0.2c0,0.1,0,0.2,0.1,0.3
			c0.1,0.1,0.2,0.1,0.3,0.2c0.1,0,0.2,0.1,0.4,0.1c0.1,0,0.3,0.1,0.5,0.1c0.1,0,0.3,0.1,0.5,0.1c0.1,0,0.3,0.1,0.4,0.2
			c0.1,0.1,0.2,0.2,0.3,0.3c0.1,0.1,0.1,0.3,0.1,0.5c0,0.2,0,0.4-0.1,0.6c-0.1,0.1-0.2,0.3-0.4,0.3c-0.1,0.1-0.3,0.2-0.5,0.2
			s-0.4,0.1-0.6,0.1c-0.2,0-0.4,0-0.6-0.1c-0.2,0-0.3-0.1-0.5-0.2c-0.1-0.1-0.3-0.2-0.3-0.4c-0.1-0.2-0.1-0.3-0.1-0.6h0.6
			C47.8,29.7,47.8,29.8,47.9,29.9z"/>
		<path fill="#FFFFFF" d="M52.7,25.5v2l0,0c0-0.1,0.1-0.2,0.2-0.3s0.2-0.1,0.3-0.2c0.1,0,0.2-0.1,0.3-0.1c0.1,0,0.2,0,0.3,0
			c0.2,0,0.5,0,0.6,0.1c0.2,0.1,0.3,0.2,0.4,0.3s0.2,0.3,0.2,0.4c0,0.2,0.1,0.3,0.1,0.6v2.5h-0.6v-2.6c0-0.2-0.1-0.4-0.2-0.6
			c-0.1-0.1-0.3-0.2-0.6-0.2c-0.2,0-0.3,0-0.5,0.1s-0.2,0.1-0.3,0.2c-0.1,0.1-0.2,0.2-0.2,0.4c0,0.1-0.1,0.3-0.1,0.5v2.1h-0.6v-5.2
			H52.7z"/>
		<path fill="#FFFFFF" d="M59.7,30.8v-0.6l0,0c-0.1,0.2-0.3,0.4-0.5,0.5c-0.2,0.1-0.5,0.2-0.7,0.2c-0.2,0-0.5,0-0.6-0.1
			c-0.2-0.1-0.3-0.2-0.4-0.3s-0.2-0.3-0.2-0.4c0-0.2-0.1-0.3-0.1-0.6V27h0.6v2.6c0,0.2,0.1,0.4,0.2,0.6c0.1,0.1,0.3,0.2,0.6,0.2
			c0.2,0,0.3,0,0.5-0.1c0.1-0.1,0.2-0.1,0.3-0.2s0.2-0.2,0.2-0.4c0-0.1,0.1-0.3,0.1-0.5V27h0.6v3.8H59.7z"/>
		<path fill="#FFFFFF" d="M62.8,27v0.8l0,0c0.1-0.3,0.3-0.5,0.6-0.7s0.5-0.2,0.8-0.2v0.7c-0.2,0-0.5,0-0.6,0.1
			c-0.2,0.1-0.3,0.2-0.4,0.3s-0.2,0.3-0.2,0.5c0,0.2-0.1,0.4-0.1,0.7v1.6h-0.6V27H62.8z"/>
		<path fill="#FFFFFF" d="M68.3,30.5c-0.3,0.2-0.6,0.3-1.1,0.3c-0.3,0-0.6,0-0.8-0.1c-0.2-0.1-0.4-0.2-0.6-0.4
			c-0.1-0.2-0.3-0.4-0.3-0.6c-0.1-0.2-0.1-0.5-0.1-0.8c0-0.3,0-0.6,0.1-0.8c0.1-0.2,0.2-0.5,0.4-0.6s0.3-0.3,0.6-0.4
			c0.2-0.1,0.5-0.1,0.7-0.1c0.3,0,0.6,0.1,0.8,0.2c0.2,0.1,0.4,0.3,0.5,0.5c0.1,0.2,0.2,0.5,0.3,0.7c0,0.2,0.1,0.5,0.1,0.7H66
			c0,0.2,0,0.3,0.1,0.5c0,0.1,0.1,0.3,0.2,0.4c0.1,0.1,0.2,0.2,0.4,0.3c0.1,0.1,0.3,0.1,0.5,0.1c0.3,0,0.5-0.1,0.7-0.2
			c0.2-0.1,0.3-0.3,0.3-0.6h0.6C68.7,30,68.5,30.3,68.3,30.5z M68.1,28.1c-0.1-0.1-0.1-0.2-0.2-0.3c-0.1-0.1-0.2-0.2-0.3-0.2
			c-0.1-0.1-0.3-0.1-0.4-0.1c-0.2,0-0.3,0-0.4,0.1c-0.1,0.1-0.2,0.1-0.3,0.2c-0.1,0.1-0.2,0.2-0.2,0.3c-0.1,0.1-0.1,0.3-0.1,0.4h2.2
			C68.2,28.4,68.2,28.2,68.1,28.1z"/>
		<path fill="#FFFFFF" d="M71.1,27v0.6l0,0c0.2-0.5,0.7-0.7,1.2-0.7c0.2,0,0.5,0,0.6,0.1c0.2,0.1,0.3,0.2,0.4,0.3
			c0.1,0.1,0.2,0.3,0.2,0.4c0,0.2,0.1,0.3,0.1,0.6v2.6h-0.6v-2.6c0-0.2-0.1-0.4-0.2-0.6s-0.3-0.2-0.6-0.2c-0.2,0-0.3,0-0.5,0.1
			c-0.1,0.1-0.2,0.1-0.3,0.2c-0.1,0.1-0.2,0.2-0.2,0.4c0,0.1-0.1,0.3-0.1,0.5v2.1h-0.6V27H71.1z"/>
		<path fill="#FFFFFF" d="M77.1,31.3c-0.1,0.2-0.1,0.3-0.2,0.5c-0.1,0.1-0.1,0.2-0.2,0.3c-0.1,0.1-0.2,0.1-0.3,0.2
			c-0.1,0-0.2,0.1-0.3,0.1c-0.1,0-0.1,0-0.2,0c-0.1,0-0.1,0-0.2,0v-0.6c0.1,0,0.1,0,0.2,0.1c0.1,0,0.1,0,0.2,0c0.1,0,0.2,0,0.3-0.1
			c0.1-0.1,0.1-0.1,0.2-0.2l0.2-0.6L75.2,27h0.7l1.1,3.1l0,0l1-3.1h0.7L77.1,31.3z"/>
		<path fill="#FFFFFF" d="M82.9,30.8v-0.6l0,0c-0.1,0.2-0.3,0.4-0.5,0.5c-0.2,0.1-0.5,0.2-0.7,0.2c-0.2,0-0.5,0-0.6-0.1
			c-0.2-0.1-0.3-0.2-0.4-0.3c-0.1-0.1-0.2-0.3-0.2-0.4c0-0.2-0.1-0.3-0.1-0.6V27h0.6v2.6c0,0.2,0.1,0.4,0.2,0.6
			c0.1,0.1,0.3,0.2,0.6,0.2c0.2,0,0.3,0,0.5-0.1c0.1-0.1,0.2-0.1,0.3-0.2c0.1-0.1,0.2-0.2,0.2-0.4c0-0.1,0.1-0.3,0.1-0.5V27h0.6v3.8
			H82.9z"/>
		<path fill="#FFFFFF" d="M86,27v0.6l0,0c0.2-0.5,0.7-0.7,1.2-0.7c0.2,0,0.5,0,0.6,0.1c0.2,0.1,0.3,0.2,0.4,0.3
			c0.1,0.1,0.2,0.3,0.2,0.4c0,0.2,0.1,0.3,0.1,0.6v2.6h-0.6v-2.6c0-0.2-0.1-0.4-0.2-0.6s-0.3-0.2-0.6-0.2c-0.2,0-0.3,0-0.5,0.1
			c-0.1,0.1-0.2,0.1-0.3,0.2c-0.1,0.1-0.2,0.2-0.2,0.4c0,0.1-0.1,0.3-0.1,0.5v2.1h-0.6V27H86z"/>
		<path fill="#FFFFFF" d="M91.4,29.9v0.8h-0.8V30L91.4,29.9L91.4,29.9z"/>
		<path fill="#FFFFFF" d="M95.8,27.6c-0.1-0.1-0.3-0.2-0.6-0.2c-0.2,0-0.4,0-0.6,0.1c-0.1,0.1-0.3,0.2-0.3,0.3
			c-0.1,0.1-0.1,0.3-0.2,0.5c0,0.2-0.1,0.3-0.1,0.6c0,0.2,0,0.3,0.1,0.5c0,0.2,0.1,0.3,0.2,0.5c0.1,0.1,0.2,0.2,0.3,0.3
			c0.1,0.1,0.3,0.1,0.5,0.1c0.3,0,0.6-0.1,0.7-0.2c0.2-0.2,0.3-0.4,0.3-0.7h0.6c-0.1,0.5-0.2,0.8-0.5,1.1c-0.3,0.2-0.7,0.4-1.2,0.4
			c-0.3,0-0.6,0-0.8-0.1s-0.4-0.2-0.6-0.4c-0.1-0.2-0.2-0.4-0.3-0.6c-0.1-0.2-0.1-0.5-0.1-0.8c0-0.3,0-0.6,0.1-0.8
			c0.1-0.2,0.2-0.5,0.3-0.6c0.1-0.2,0.3-0.3,0.6-0.4c0.2-0.1,0.5-0.2,0.8-0.2c0.2,0,0.4,0,0.6,0.1c0.2,0,0.3,0.1,0.5,0.2
			c0.1,0.1,0.3,0.2,0.3,0.4c0.1,0.2,0.1,0.3,0.2,0.6h-0.6C96.1,27.9,96,27.8,95.8,27.6z"/>
		<path fill="#FFFFFF" d="M98.4,28.1c0.1-0.2,0.2-0.5,0.3-0.6c0.1-0.2,0.3-0.3,0.6-0.4c0.2-0.1,0.5-0.1,0.8-0.1s0.6,0,0.8,0.1
			c0.2,0.1,0.4,0.2,0.6,0.4c0.1,0.2,0.3,0.4,0.3,0.6c0.1,0.2,0.1,0.5,0.1,0.8s0,0.5-0.1,0.8c-0.1,0.2-0.2,0.5-0.3,0.6
			c-0.1,0.2-0.3,0.3-0.6,0.4c-0.2,0.1-0.5,0.1-0.8,0.1s-0.6,0-0.8-0.1c-0.2-0.1-0.4-0.2-0.6-0.4c-0.1-0.2-0.3-0.4-0.3-0.6
			c-0.1-0.2-0.1-0.5-0.1-0.8S98.3,28.3,98.4,28.1z M99,29.5c0.1,0.2,0.1,0.3,0.2,0.5c0.1,0.1,0.2,0.2,0.4,0.3
			c0.1,0.1,0.3,0.1,0.5,0.1c0.2,0,0.3,0,0.5-0.1c0.1-0.1,0.3-0.1,0.4-0.3c0.1-0.1,0.2-0.3,0.2-0.5c0.1-0.2,0.1-0.4,0.1-0.6
			c0-0.2,0-0.4-0.1-0.6c-0.1-0.2-0.1-0.3-0.2-0.5c-0.1-0.1-0.2-0.2-0.4-0.3c-0.1-0.1-0.3-0.1-0.5-0.1c-0.2,0-0.3,0-0.5,0.1
			c-0.1,0.1-0.3,0.1-0.4,0.3c-0.1,0.1-0.2,0.3-0.2,0.5c-0.1,0.2-0.1,0.4-0.1,0.6C98.9,29.1,99,29.3,99,29.5z"/>
		<path fill="#FFFFFF" d="M104.3,27v0.6l0,0c0.3-0.4,0.7-0.6,1.2-0.6c0.2,0,0.5,0,0.6,0.1c0.2,0.1,0.3,0.3,0.4,0.5
			c0.1-0.2,0.3-0.3,0.5-0.5c0.2-0.1,0.4-0.2,0.7-0.2c0.2,0,0.3,0,0.5,0.1c0.1,0,0.3,0.1,0.4,0.2c0.1,0.1,0.2,0.2,0.2,0.3
			c0.1,0.1,0.1,0.3,0.1,0.5v2.8h-0.6v-2.5c0-0.1,0-0.2,0-0.3s-0.1-0.2-0.1-0.3c-0.1-0.1-0.1-0.1-0.2-0.2c-0.1,0-0.2-0.1-0.4-0.1
			c-0.3,0-0.6,0.1-0.7,0.3c-0.2,0.2-0.3,0.4-0.3,0.7v2.3H106v-2.5c0-0.1,0-0.2,0-0.3c0-0.1-0.1-0.2-0.1-0.3
			c-0.1-0.1-0.1-0.1-0.2-0.2c-0.1,0-0.2-0.1-0.3-0.1c-0.2,0-0.3,0-0.5,0.1c-0.1,0.1-0.2,0.2-0.3,0.3c-0.1,0.1-0.1,0.2-0.2,0.3
			c0,0.1-0.1,0.2-0.1,0.3v2.4h-0.6V27H104.3z"/>
	</g>
	<path fill="#FFFFFF" d="M71.1,20.7l5-16h3.7l-1.3,4.4h3l3,11.5c0.2,0.6,0.5,0.7,1.2,0.7h2V24h-4.2c-1.2,0-1.4-0.5-1.7-1.4L78.6,11
		h-0.5l-4,12c-0.2,0.7-0.7,1-1.5,1h-4.2v-2.6h1.9C70.6,21.4,70.8,21.3,71.1,20.7z"/>
	<g>
		<g>
			<g>
				<path fill="#FFFFFF" d="M60.5,10.3l1.4,3.9l1.6-5h2.8l-3.1,9.4l1.3,3.1c0.1,0.3,0.3,0.4,0.7,0.4h1.2v2h-2.6
					c-0.7,0-0.9-0.3-1.2-0.8L62,21.9l-0.5,1.3c-0.2,0.6-0.5,0.8-1.3,0.8h-2.6v-1.9h1.2c0.1,0,0.4,0,0.5-0.2l1.3-3.7l-2.9-7.9
					C57.7,10.3,60.5,10.3,60.5,10.3z"/>
			</g>
		</g>
		<path fill="#FFFFFF" d="M57.7,9.6V7.2h0.4c0.4,0,0.6-0.2,0.7-0.7l0.2-1.7h2.7l-0.1,1.2h4.9v2.5h-5.3l-0.2,0.5
			c-0.2,0.5-0.7,0.7-1.6,0.7H57.7z"/>
		<polygon fill="#FFFFFF" points="53.2,14.9 50.8,14.9 50.8,9.9 47.2,9.9 47.2,7.4 47.8,7.4 47.8,5.2 49.7,5.2 49.9,7.4 50.8,7.4 
			50.8,4.8 53.2,4.8 		"/>
		<polygon fill="#FFFFFF" points="50.8,4.8 53.3,4.8 53.3,7.4 54.3,7.4 54.3,5.2 56.4,5.2 56.2,7.4 56.9,7.4 56.9,9.9 53.3,9.9 
			53.3,14.9 50.8,14.9 		"/>
		<path fill="#FFFFFF" d="M47.3,14.5v-1.7c0.5,0.1,0.8-0.2,0.8-0.7l0.2-1.4h2.2L50,13.4c-0.2,0.7-0.5,1.1-1.2,1.1H47.3z"/>
		<path fill="#FFFFFF" d="M56.9,14.5h-1.4c-0.9,0-1.4-0.3-1.5-1.2l-0.6-2.7h2.2l0.3,1.5c0.1,0.5,0.3,0.6,0.9,0.6V14.5z"/>
		<path fill="#FFFFFF" d="M56.2,18.4h0.7V16h-0.7v-0.8h-2.3V16h-3.9v-0.8h-2.3V16h-0.4v2.3h0.4v1.8l2.7,1.7c0,0-0.5,0.2-1,0.2
			c-0.5,0-2,0-2,0V24h2.8c0.5,0,0.8-0.1,1.3-0.3l0.9-0.7l1.1,0.7c0.3,0.2,0.6,0.3,1.1,0.3h2.7v-1.9c0,0-0.8,0-1.5,0
			c-0.7,0-1.3-0.5-1.3-0.5l2.1-1.8V18.4z M53.9,19.1l-1.9,1.3l-2.2-1.4v-0.7h4.1V19.1z"/>
	</g>
	<g>
		<g>
			<path fill="#FFFFFF" d="M89.6,22.1l2.9-7.5h-2.9v-2.8h19.3v2.8H95.6L93,21.4h12.3c0.3,0,0.5-0.1,0.5-0.4v-3.1h3V22
				c0,1.4-0.7,2.1-2,2.1H89.6V22.1z"/>
		</g>
		<rect x="89.9" y="4.8" fill="#FFFFFF" width="18.9" height="2.8"/>
	</g>
</g>
<text transform="matrix(1 0 0 1 112.0004 12.9671)" fill="#FFFFFF" font-family="'ArialMT'" font-size="12">beta</text>
</svg>
