<?xml version="1.0" encoding="utf-8"?>
<!-- Generator: Adobe Illustrator 18.0.0, SVG Export Plug-In . SVG Version: 6.00 Build 0)  -->
<!DOCTYPE svg PUBLIC "-//W3C//DTD SVG 1.1//EN" "http://www.w3.org/Graphics/SVG/1.1/DTD/svg11.dtd">
<svg version="1.1" id="图层_1" xmlns="http://www.w3.org/2000/svg" xmlns:xlink="http://www.w3.org/1999/xlink" x="0px" y="0px"
	 viewBox="0 0 65 33" enable-background="new 0 0 65 33" xml:space="preserve">
<g>
	<circle fill="#2990D0" cx="9.5" cy="23.2" r="9.5"/>
	<circle fill="#2990D0" cx="36.2" cy="23.2" r="9.5"/>
	<circle fill="#2990D0" cx="13" cy="11.9" r="7.4"/>
	<circle fill="#2990D0" cx="27.1" cy="13.3" r="13"/>
	<rect x="9.8" y="13.7" fill="#2990D0" width="26.7" height="19"/>
</g>
<g>
	<g>
		<circle fill="#FFFFFF" cx="23.4" cy="18.2" r="5.3"/>
	</g>
	<g>
		<path fill="#FFFFFF" d="M23.4,30.6c-7,0-12.7-5.7-12.7-12.7c0-3,1.1-6,3.1-8.3c0.8-0.9,2.1-1,3-0.2c0.9,0.8,1,2.1,0.2,3
			c-1.3,1.5-2,3.5-2,5.5c0,4.7,3.8,8.5,8.5,8.5s8.5-3.8,8.5-8.5c0-2-0.7-4-2-5.5c-0.8-0.9-0.6-2.2,0.2-3c0.9-0.8,2.2-0.6,3,0.2
			c1.9,2.3,3.1,5.2,3.1,8.3C36,25,30.4,30.6,23.4,30.6z"/>
	</g>
	<g>
		<rect x="16" y="26.9" fill="#FFFFFF" width="14.8" height="5.7"/>
	</g>
</g>
<text transform="matrix(1 0 0 1 41.6831 8.9671)" fill="#FFFFFF" font-family="'ArialMT'" font-size="12">beta</text>
</svg>
